<svg width="360" height="60" viewBox="0 0 360 60" fill="none" xmlns="http://www.w3.org/2000/svg">
<g clip-path="url(#clip0_18_93)">
<rect x="300" width="60" height="60" rx="30" fill="#8DFF33" fill-opacity="0.2"/>
<path d="M330 30C331.602 29.9606 332.93 29.4138 333.984 28.3594C335.039 27.305 335.586 25.9769 335.625 24.375C335.586 22.7731 335.039 21.445 333.984 20.3906C332.93 19.3362 331.602 18.7894 330 18.75C328.398 18.7894 327.07 19.3362 326.016 20.3906C324.961 21.445 324.414 22.7731 324.375 24.375C324.414 25.9769 324.961 27.305 326.016 28.3594C327.07 29.4138 328.398 29.9606 330 30ZM330 31.875C327.871 31.8162 326.104 31.0838 324.697 29.6775C323.291 28.2713 322.559 26.5037 322.5 24.375C322.559 22.2463 323.291 20.4787 324.697 19.0725C326.104 17.6662 327.871 16.9338 330 16.875C332.129 16.9338 333.896 17.6662 335.303 19.0725C336.709 20.4787 337.441 22.2463 337.5 24.375C337.441 26.5037 336.709 28.2713 335.303 29.6775C333.896 31.0838 332.129 31.8162 330 31.875ZM330 30C330.274 30 330.498 30.0878 330.674 30.2634C330.85 30.4391 330.938 30.6638 330.938 30.9375V38.4375C330.938 38.7112 330.85 38.9359 330.674 39.1116C330.498 39.2872 330.274 39.375 330 39.375C329.726 39.375 329.502 39.2872 329.326 39.1116C329.15 38.9359 329.062 38.7112 329.062 38.4375V30.9375C329.062 30.6638 329.15 30.4391 329.326 30.2634C329.502 30.0878 329.726 30 330 30V30ZM326.25 34.0134V35.9175C324.551 36.2106 323.193 36.5962 322.178 37.0744C321.162 37.5525 320.644 38.0066 320.625 38.4366C320.684 39.0422 321.587 39.6525 323.335 40.2675C325.083 40.8825 327.305 41.2097 330 41.2491C332.696 41.2097 334.917 40.8825 336.665 40.2675C338.412 39.6525 339.316 39.0422 339.375 38.4366C339.356 38.0066 338.838 37.5525 337.822 37.0744C336.807 36.5962 335.449 36.2106 333.75 35.9175V34.0134C335.977 34.3453 337.774 34.9069 339.141 35.6981C340.507 36.4894 341.211 37.4025 341.25 38.4375C341.172 39.7656 340.073 40.8691 337.954 41.7478C335.834 42.6266 333.183 43.0856 330 43.125C326.816 43.0856 324.165 42.6266 322.046 41.7478C319.927 40.8691 318.829 39.7656 318.75 38.4375C318.789 37.4025 319.493 36.4894 320.859 35.6981C322.226 34.9069 324.023 34.3453 326.25 34.0134Z" fill="#08080A" fill-opacity="0.96"/>
<rect width="60" height="60" rx="30" fill="#F7F26D" fill-opacity="0.2"/>
<path d="M19.625 36.5625H38.375V18.75H21.5C20.9725 18.7694 20.5331 18.955 20.1819 19.3069C19.8306 19.6587 19.645 20.0981 19.625 20.625V36.5625ZM21.5 16.875H39.3125C39.5862 16.875 39.8109 16.9628 39.9866 17.1384C40.1622 17.3141 40.25 17.5388 40.25 17.8125V37.5C40.25 37.7737 40.1622 37.9984 39.9866 38.1741C39.8109 38.3497 39.5862 38.4375 39.3125 38.4375H18.6875L17.75 40.1372V20.625C17.7694 19.57 18.1356 18.6862 18.8487 17.9737C19.5619 17.2612 20.4456 16.895 21.5 16.875ZM21.0312 38.4375C20.6406 38.4569 20.3134 38.5984 20.0497 38.8622C19.7859 39.1259 19.6541 39.4531 19.6541 39.8438C19.6541 40.2344 19.7859 40.5616 20.0497 40.8253C20.3134 41.0891 20.6406 41.2306 21.0312 41.25H38.375V38.4375H21.0312ZM21.0312 36.5625H40.25V41.25C40.2306 41.7775 40.045 42.2169 39.6931 42.5681C39.3413 42.9194 38.9019 43.105 38.375 43.125H21.0312C20.0938 43.1056 19.3175 42.7881 18.7025 42.1725C18.0875 41.5569 17.77 40.7806 17.75 39.8438C17.7694 38.9062 18.0869 38.13 18.7025 37.515C19.3181 36.9 20.0944 36.5825 21.0312 36.5625ZM25.25 18.75V26.1037L28.0625 23.8481L30.875 26.1037V18.75H25.25V18.75ZM23.375 16.875H32.75V28.0369C32.7306 28.4275 32.55 28.7059 32.2081 28.8722C31.8663 29.0384 31.5391 29.0044 31.2266 28.77L28.0625 26.25L24.8984 28.77C24.5859 29.0044 24.2588 29.0384 23.9169 28.8722C23.575 28.7059 23.3944 28.4275 23.375 28.0369V16.875Z" fill="#08080A" fill-opacity="0.96"/>
<rect x="60" width="60" height="60" rx="30" fill="#4857EC" fill-opacity="0.2"/>
<path d="M85.5803 36.75H79.75C79.4762 36.75 79.2516 36.6622 79.0759 36.4866C78.9003 36.3109 78.8125 36.0863 78.8125 35.8125V19.875H76.9375C76.6637 19.875 76.4391 19.7872 76.2634 19.6116C76.0878 19.4359 76 19.2113 76 18.9375C76 18.6637 76.0878 18.4391 76.2634 18.2634C76.4391 18.0878 76.6637 18 76.9375 18H103.188C103.461 18 103.686 18.0878 103.862 18.2634C104.037 18.4391 104.125 18.6637 104.125 18.9375C104.125 19.2113 104.037 19.4359 103.862 19.6116C103.686 19.7872 103.461 19.875 103.188 19.875H101.312V35.8125C101.312 36.0863 101.225 36.3109 101.049 36.4866C100.873 36.6622 100.649 36.75 100.375 36.75H94.5447L97.7969 42.375H95.6284L92.3763 36.75H87.7469L84.4947 42.375H82.3263L85.5803 36.75ZM99.4375 19.875H80.6875V34.875H99.4375V19.875ZM85.1116 29.9241C84.9159 30.0997 84.6912 30.1875 84.4375 30.1875C84.1838 30.1875 83.9641 30.0947 83.7784 29.9091C83.5928 29.7234 83.5 29.5037 83.5 29.25C83.5 28.9963 83.5878 28.7716 83.7634 28.5759L88.0994 24.2691L91.7613 27.0234L94.9544 23.0391C95.1888 22.7459 95.4866 22.6238 95.8478 22.6725C96.2091 22.7213 96.4531 22.9166 96.58 23.2584C96.7069 23.6003 96.6531 23.9178 96.4188 24.2109L92.1119 29.6016L88.2738 26.73L85.1116 29.9241Z" fill="#08080A" fill-opacity="0.96"/>
<rect x="180" width="60" height="60" rx="30" fill="#33A9FF" fill-opacity="0.2"/>
<path d="M198.75 26.25V39.375H221.25V26.25H198.75ZM197.812 24.375H222.188C222.461 24.375 222.686 24.4628 222.862 24.6384C223.037 24.8141 223.125 25.0388 223.125 25.3125V40.3125C223.125 40.5862 223.037 40.8109 222.862 40.9866C222.686 41.1622 222.461 41.25 222.188 41.25H197.812C197.539 41.25 197.314 41.1622 197.138 40.9866C196.963 40.8109 196.875 40.5862 196.875 40.3125V25.3125C196.875 25.0388 196.963 24.8141 197.138 24.6384C197.314 24.4628 197.539 24.375 197.812 24.375ZM199.688 20.625H220.312V22.5H199.688V20.625ZM202.5 16.875H217.5V18.75H202.5V16.875Z" fill="#08080A" fill-opacity="0.96"/>
<rect x="240" width="60" height="60" rx="30" fill="#48EC9D" fill-opacity="0.2"/>
<path d="M260.127 40.0781L264.082 38.76L264.786 39.0825C266.387 39.9031 268.126 40.3134 270.001 40.3134C273.185 40.2159 275.836 39.1759 277.955 37.1934C280.073 35.2109 281.172 32.8134 281.251 30.0009C281.173 27.1884 280.074 24.7909 277.955 22.8084C275.835 20.8259 273.184 19.7859 270.001 19.6884C266.817 19.7859 264.166 20.8259 262.047 22.8084C259.928 24.7909 258.83 27.1884 258.751 30.0009C258.751 31.0165 258.927 32.0225 259.279 33.0187C259.631 34.015 260.148 34.9525 260.831 35.8312L261.476 36.6806L260.127 40.0781ZM258.779 42.4809C258.408 42.5984 258.09 42.5153 257.827 42.2315C257.563 41.9478 257.499 41.6206 257.636 41.25L259.336 36.9721C258.555 35.9371 257.949 34.8287 257.519 33.6468C257.089 32.465 256.874 31.249 256.874 29.999C256.952 26.7765 258.202 23.969 260.624 21.5765C263.046 19.184 266.171 17.929 269.999 17.8115C273.827 17.929 276.952 19.184 279.374 21.5765C281.796 23.969 283.046 26.7765 283.124 29.999C283.046 33.2215 281.796 36.029 279.374 38.4215C276.952 40.814 273.827 42.069 269.999 42.1865C267.87 42.1865 265.849 41.7178 263.934 40.7803L258.779 42.4809ZM270 31.4943C269.726 31.4943 269.477 31.4309 269.253 31.304C269.028 31.1771 268.848 30.9915 268.711 30.7471C268.574 30.5028 268.506 30.2537 268.506 30C268.506 29.7462 268.574 29.4971 268.711 29.2528C268.848 29.0084 269.028 28.8228 269.253 28.6959C269.477 28.569 269.726 28.5056 270 28.5056C270.43 28.5056 270.787 28.6471 271.07 28.9303C271.353 29.2134 271.494 29.57 271.494 30C271.494 30.43 271.353 30.7865 271.07 31.0696C270.787 31.3528 270.43 31.4943 270 31.4943V31.4943ZM275.625 31.4943C275.351 31.4943 275.102 31.4309 274.878 31.304C274.653 31.1771 274.473 30.9915 274.336 30.7471C274.199 30.5028 274.131 30.2537 274.131 30C274.131 29.7462 274.199 29.4971 274.336 29.2528C274.473 29.0084 274.653 28.8228 274.878 28.6959C275.102 28.569 275.351 28.5056 275.625 28.5056C276.055 28.5056 276.412 28.6471 276.695 28.9303C276.978 29.2134 277.119 29.57 277.119 30C277.119 30.43 276.978 30.7865 276.695 31.0696C276.412 31.3528 276.055 31.4943 275.625 31.4943V31.4943ZM264.375 31.4943C264.101 31.4943 263.852 31.4309 263.628 31.304C263.403 31.1771 263.223 30.9915 263.086 30.7471C262.949 30.5028 262.881 30.2537 262.881 30C262.881 29.7462 262.949 29.4971 263.086 29.2528C263.223 29.0084 263.403 28.8228 263.628 28.6959C263.852 28.569 264.101 28.5056 264.375 28.5056C264.805 28.5056 265.162 28.6471 265.445 28.9303C265.728 29.2134 265.869 29.57 265.869 30C265.869 30.43 265.728 30.7865 265.445 31.0696C265.162 31.3528 264.805 31.4943 264.375 31.4943V31.4943Z" fill="#08080A" fill-opacity="0.96"/>
<rect x="120" width="60" height="60" rx="30" fill="#FF3344" fill-opacity="0.2"/>
<path d="M148.303 21.5712C147.313 21.5712 146.571 21.6099 146.077 21.6873C145.582 21.7647 145.156 21.9002 144.8 22.094C144.206 22.4035 143.75 22.8486 143.434 23.4292C143.236 23.7777 143.097 24.1937 143.018 24.6772C142.939 25.1606 142.899 25.8861 142.899 26.8537V34.8623C142.899 35.8299 142.939 36.5554 143.018 37.0388C143.097 37.5223 143.236 37.9383 143.434 38.2868C143.75 38.8674 144.206 39.3125 144.8 39.622C145.156 39.8158 145.582 39.9513 146.077 40.0287C146.571 40.1061 147.313 40.1448 148.303 40.1448H152.697C153.687 40.1448 154.429 40.1061 154.923 40.0287C155.418 39.9513 155.844 39.8158 156.2 39.622C156.794 39.3125 157.25 38.8674 157.566 38.2868C157.764 37.9383 157.903 37.5223 157.982 37.0388C158.061 36.5554 158.101 35.8299 158.101 34.8623V26.8537C158.101 25.8861 158.061 25.1606 157.982 24.6772C157.903 24.1937 157.764 23.7777 157.566 23.4292C157.25 22.8486 156.794 22.4035 156.2 22.094C155.844 21.9002 155.418 21.7647 154.923 21.6873C154.429 21.6099 153.687 21.5712 152.697 21.5712H148.303V21.5712ZM148.303 19.7142H152.697C153.924 19.7142 154.854 19.777 155.488 19.9026C156.121 20.0283 156.656 20.2168 157.091 20.4681C158.022 20.9516 158.734 21.648 159.229 22.5573C159.486 22.9832 159.679 23.5057 159.807 24.1247C159.936 24.7437 160 25.6531 160 26.8528V34.8614C160 36.0611 159.936 36.9704 159.807 37.5894C159.679 38.2085 159.486 38.7309 159.229 39.1568C158.734 40.0662 158.022 40.7626 157.091 41.246C156.656 41.4974 156.121 41.6858 155.488 41.8115C154.854 41.9372 153.924 42 152.697 42H148.303C147.076 42 146.146 41.9372 145.512 41.8115C144.879 41.6858 144.344 41.4974 143.909 41.246C142.978 40.7626 142.266 40.0662 141.771 39.1568C141.514 38.7309 141.321 38.2085 141.193 37.5894C141.064 36.9704 141 36.0611 141 34.8614V26.8528C141 25.6531 141.064 24.7437 141.193 24.1247C141.321 23.5057 141.514 22.9832 141.771 22.5573C142.266 21.648 142.978 20.9516 143.909 20.4681C144.344 20.2168 144.879 20.0283 145.512 19.9026C146.146 19.777 147.076 19.7142 148.303 19.7142V19.7142ZM150.5 23.4283C151.133 23.4283 151.449 23.7378 151.449 24.3568V28.071C151.449 28.69 151.133 28.9995 150.5 28.9995C149.866 28.9995 149.55 28.69 149.55 28.071V24.3568C149.55 23.7378 149.866 23.4283 150.5 23.4283ZM151.449 20.6427C151.449 20.9138 151.36 21.1364 151.183 21.3103C151.005 21.4843 150.777 21.5712 150.5 21.5712C150.222 21.5712 149.994 21.4843 149.817 21.3103C149.639 21.1364 149.55 20.9138 149.55 20.6427V18.7856C149.55 18.5145 149.461 18.2919 149.283 18.118C149.105 17.944 148.877 17.8571 148.6 17.8571H145.75C145.472 17.8571 145.245 17.7701 145.067 17.5962C144.889 17.4222 144.8 17.1997 144.8 16.9285C144.8 16.6574 144.889 16.4349 145.067 16.2609C145.245 16.087 145.472 16 145.75 16H148.6C149.411 16.0192 150.084 16.29 150.618 16.8125C151.153 17.3349 151.43 17.9926 151.449 18.7856V20.6427Z" fill="#08080A" fill-opacity="0.96"/>
</g>
<defs>
<clipPath id="clip0_18_93">
<rect width="360" height="60" fill="white"/>
</clipPath>
</defs>
</svg>
