<svg version="1.1" xmlns="http://www.w3.org/2000/svg" xmlns:xlink="http://www.w3.org/1999/xlink" width="32px" height="32px" viewBox="0,0,256,256"><g fill="#ffffff" fill-rule="nonzero" stroke="none" stroke-width="1" stroke-linecap="butt" stroke-linejoin="miter" stroke-miterlimit="10" stroke-dasharray="" stroke-dashoffset="0" font-family="none" font-weight="none" font-size="none" text-anchor="none" style="mix-blend-mode: normal"><g transform="scale(10.66667,10.66667)"><g><path d="M18.437,20.937h-12.874c-1.38071,0 -2.5,-1.11929 -2.5,-2.5v-12.874c0,-1.38071 1.11929,-2.5 2.5,-2.5h12.874c1.38071,0 2.5,1.11929 2.5,2.5v12.874c0,1.38071 -1.11929,2.5 -2.5,2.5zM5.563,4.063c-0.82843,0 -1.5,0.67157 -1.5,1.5v12.874c0,0.82843 0.67157,1.5 1.5,1.5h12.874c0.82843,0 1.5,-0.67157 1.5,-1.5v-12.874c0,-0.82843 -0.67157,-1.5 -1.5,-1.5z"></path><path d="M12,16.594c-2.53723,-0.00276 -4.59202,-2.06144 -4.59,-4.59866c0.00202,-2.53723 2.0601,-4.59262 4.59733,-4.59133c2.53723,0.00129 4.59322,2.05877 4.59267,4.596c-0.00331,2.53817 -2.06183,4.594 -4.6,4.594zM12,8.4c-1.98416,0.00276 -3.59092,1.6125 -3.59,3.59666c0.00092,1.98416 1.60917,3.59241 3.59333,3.59333c1.98416,0.00092 3.5939,-1.60584 3.59666,-3.59c0,-1.98823 -1.61177,-3.6 -3.6,-3.6z"></path><circle cx="17.2" cy="6.83" r="1.075"></circle></g></g></g></svg>